<?xml version="1.0" standalone="no"?>
<!DOCTYPE svg PUBLIC "-//W3C//DTD SVG 20010904//EN"
 "http://www.w3.org/TR/2001/REC-SVG-20010904/DTD/svg10.dtd">
<svg version="1.0" xmlns="http://www.w3.org/2000/svg"
 width="512.000000pt" height="512.000000pt" viewBox="0 0 512.000000 512.000000"
 preserveAspectRatio="xMidYMid meet">
<metadata>
Created by potrace 1.14, written by Peter Selinger 2001-2017
</metadata>
<g transform="translate(0.000000,512.000000) scale(0.100000,-0.100000)"
fill="#000000" stroke="none">
<path d="M420 4235 l0 -465 165 0 165 0 0 300 0 300 300 0 300 0 0 165 0 165
-465 0 -465 0 0 -465z"/>
<path d="M3770 4535 l0 -165 300 0 300 0 0 -300 0 -300 165 0 165 0 0 465 0
465 -465 0 -465 0 0 -165z"/>
<path d="M1000 3445 l0 -675 675 0 675 0 0 675 0 675 -675 0 -675 0 0 -675z
m1080 0 l0 -405 -405 0 -405 0 0 405 0 405 405 0 405 0 0 -405z"/>
<path d="M2760 3445 l0 -675 680 0 680 0 0 675 0 675 -680 0 -680 0 0 -675z
m1080 0 l0 -405 -400 0 -400 0 0 405 0 405 400 0 400 0 0 -405z"/>
<path d="M1000 1675 l0 -675 675 0 675 0 0 675 0 675 -675 0 -675 0 0 -675z
m1080 0 l0 -405 -405 0 -405 0 0 405 0 405 405 0 405 0 0 -405z"/>
<path d="M2760 2180 l0 -170 170 0 170 0 0 -165 0 -165 -170 0 -170 0 0 -175
0 -175 170 0 170 0 0 -165 0 -165 170 0 170 0 0 165 0 165 165 0 165 0 0 -165
0 -165 175 0 175 0 0 170 0 170 -170 0 -170 0 0 165 0 165 170 0 170 0 0 175
0 175 -170 0 -170 0 0 165 0 165 -170 0 -170 0 0 -165 0 -165 -165 0 -165 0 0
165 0 165 -175 0 -175 0 0 -170z m1010 -335 l0 -165 -165 0 -165 0 0 165 0
165 165 0 165 0 0 -165z m-330 -340 l0 -165 -165 0 -165 0 0 165 0 165 165 0
165 0 0 -165z"/>
<path d="M420 885 l0 -465 465 0 465 0 0 165 0 165 -300 0 -300 0 0 300 0 300
-165 0 -165 0 0 -465z"/>
<path d="M4370 1050 l0 -300 -300 0 -300 0 0 -165 0 -165 465 0 465 0 0 465 0
465 -165 0 -165 0 0 -300z"/>
</g>
</svg>
